# xmcd
#
# Track frame offsets:
#	200
#	19992
#	39370
#	56242
#	83632
#	100217
#	122175
#	140015
#	153455
#	168655
#	216000
#
# Disc length: 3265 seconds
#
# Revision: 1
# Processed by: cddbd v1.5.2PL0 Copyright (c) Steve Scherf et al.
# Submitted via: audiograbber 1.83.01
#
DISCID=990cbf0b
DTITLE=Roy Rogers and Norton Buffalo - Travellin' Tracks
DYEAR=1992
DGENRE=Blues
TTITLE0=I Still Can't Forget You
TTITLE1=Big Jake
TTITLE2=The Message
TTITLE3=Mercury
TTITLE4=The Buffalo Cajun Mambo
TTITLE5=Down In Mississippi
TTITLE6=You're Gonna Need Somebody On Your Bond
TTITLE7=Jack Of Diamonds/Queen Of Spades
TTITLE8=Hey There Grandpa
TTITLE9=Move On Way From Here
TTITLE10=Shake Your Moneymaker
EXTD=
EXTT0=
EXTT1=
EXTT2=
EXTT3=
EXTT4=
EXTT5=
EXTT6=
EXTT7=
EXTT8=
EXTT9=
EXTT10=
PLAYORDER=
